<svg width="106" height="29" viewBox="0 0 106 29" fill="none" xmlns="http://www.w3.org/2000/svg">
<g filter="url(#filter0_d_27_87)">
<rect x="1" width="104" height="26" rx="13" fill="#EBEEF2"/>
</g>
<path d="M24.9111 11.3369C24.9111 11.7835 24.8245 12.1709 24.6514 12.499C24.4782 12.8271 24.2367 13.096 23.9268 13.3057C23.6169 13.5107 23.2523 13.6543 22.833 13.7363V13.791C23.626 13.8913 24.2207 14.1465 24.6172 14.5566C25.0182 14.9668 25.2188 15.5046 25.2188 16.1699C25.2188 16.7487 25.082 17.2614 24.8086 17.708C24.5397 18.1546 24.125 18.5055 23.5645 18.7607C23.0085 19.0114 22.2952 19.1367 21.4248 19.1367C20.8962 19.1367 20.4062 19.0934 19.9551 19.0068C19.5085 18.9248 19.0801 18.7858 18.6699 18.5898V17.5234C19.0846 17.7285 19.5358 17.8903 20.0234 18.0088C20.5111 18.1227 20.9827 18.1797 21.4385 18.1797C22.3499 18.1797 23.0085 17.9997 23.4141 17.6396C23.8197 17.2751 24.0225 16.7783 24.0225 16.1494C24.0225 15.7165 23.9085 15.3678 23.6807 15.1035C23.4574 14.8346 23.1338 14.6387 22.71 14.5156C22.2907 14.388 21.7848 14.3242 21.1924 14.3242H20.1943V13.3535H21.1992C21.7415 13.3535 22.2018 13.2738 22.5801 13.1143C22.9583 12.9548 23.2454 12.7314 23.4414 12.4443C23.6419 12.1527 23.7422 11.8086 23.7422 11.4121C23.7422 10.9062 23.5736 10.5166 23.2363 10.2432C22.8991 9.96517 22.4411 9.82617 21.8623 9.82617C21.5068 9.82617 21.1833 9.86263 20.8916 9.93555C20.5999 10.0085 20.3265 10.1087 20.0713 10.2363C19.8161 10.3639 19.5609 10.512 19.3057 10.6807L18.7314 9.90137C19.096 9.61882 19.5404 9.375 20.0645 9.16992C20.5885 8.96484 21.1833 8.8623 21.8486 8.8623C22.8695 8.8623 23.6351 9.09473 24.1455 9.55957C24.6559 10.0244 24.9111 10.6169 24.9111 11.3369ZM26.8457 14.7275C26.8457 14.126 26.8867 13.5381 26.9688 12.9639C27.0553 12.3896 27.1989 11.8564 27.3994 11.3643C27.5999 10.8675 27.8734 10.4323 28.2197 10.0586C28.5661 9.6849 28.9967 9.39323 29.5117 9.18359C30.0312 8.9694 30.6533 8.8623 31.3779 8.8623C31.583 8.8623 31.804 8.8737 32.041 8.89648C32.278 8.91471 32.474 8.94661 32.6289 8.99219V9.96973C32.4603 9.91048 32.2666 9.86719 32.0479 9.83984C31.8337 9.8125 31.6172 9.79883 31.3984 9.79883C30.5508 9.79883 29.8831 9.9834 29.3955 10.3525C28.9124 10.7217 28.5638 11.223 28.3496 11.8564C28.1354 12.4854 28.0124 13.194 27.9805 13.9824H28.0557C28.1969 13.7546 28.377 13.5495 28.5957 13.3672C28.8145 13.1803 29.0788 13.0322 29.3887 12.9229C29.7031 12.8135 30.0677 12.7588 30.4824 12.7588C31.0658 12.7588 31.5739 12.8773 32.0068 13.1143C32.4443 13.3512 32.7816 13.6953 33.0186 14.1465C33.2601 14.5977 33.3809 15.1445 33.3809 15.7871C33.3809 16.4753 33.2533 17.07 32.998 17.5713C32.7428 18.0726 32.3783 18.46 31.9043 18.7334C31.4349 19.0023 30.8743 19.1367 30.2227 19.1367C29.735 19.1367 29.2861 19.0433 28.876 18.8564C28.4658 18.6696 28.1081 18.3916 27.8027 18.0225C27.502 17.6533 27.2673 17.1953 27.0986 16.6484C26.93 16.097 26.8457 15.4567 26.8457 14.7275ZM30.209 18.1797C30.8288 18.1797 31.3255 17.9814 31.6992 17.585C32.0729 17.1885 32.2598 16.5892 32.2598 15.7871C32.2598 15.1309 32.0934 14.6113 31.7607 14.2285C31.4281 13.8457 30.9268 13.6543 30.2568 13.6543C29.8011 13.6543 29.4046 13.75 29.0674 13.9414C28.7301 14.1283 28.4681 14.3652 28.2812 14.6523C28.0944 14.9395 28.001 15.2311 28.001 15.5273C28.001 15.8281 28.0443 16.1335 28.1309 16.4434C28.222 16.7533 28.3587 17.0404 28.541 17.3047C28.7233 17.569 28.9535 17.7809 29.2314 17.9404C29.5094 18.0999 29.8353 18.1797 30.209 18.1797ZM41.3584 13.9893C41.3584 14.8005 41.2969 15.5251 41.1738 16.1631C41.0508 16.8011 40.8571 17.3411 40.5928 17.7832C40.3285 18.2253 39.9867 18.5625 39.5674 18.7949C39.1481 19.0228 38.6445 19.1367 38.0566 19.1367C37.3138 19.1367 36.6986 18.9339 36.2109 18.5283C35.7279 18.1227 35.3656 17.5371 35.124 16.7715C34.887 16.0013 34.7686 15.0739 34.7686 13.9893C34.7686 12.9229 34.8757 12.0068 35.0898 11.2412C35.3086 10.471 35.6595 9.88086 36.1426 9.4707C36.6257 9.05599 37.2637 8.84863 38.0566 8.84863C38.8086 8.84863 39.4284 9.05371 39.916 9.46387C40.4036 9.86947 40.766 10.4574 41.0029 11.2275C41.2399 11.9932 41.3584 12.9137 41.3584 13.9893ZM35.9102 13.9893C35.9102 14.9189 35.9808 15.6937 36.1221 16.3135C36.2633 16.9333 36.4912 17.3981 36.8057 17.708C37.1247 18.0133 37.5417 18.166 38.0566 18.166C38.5716 18.166 38.9863 18.0133 39.3008 17.708C39.6198 17.4027 39.8499 16.9401 39.9912 16.3203C40.137 15.7005 40.21 14.9235 40.21 13.9893C40.21 13.0732 40.1393 12.3076 39.998 11.6924C39.8568 11.0726 39.6289 10.6077 39.3145 10.2979C39 9.9834 38.5807 9.82617 38.0566 9.82617C37.5326 9.82617 37.1133 9.9834 36.7988 10.2979C36.4844 10.6077 36.2565 11.0726 36.1152 11.6924C35.9785 12.3076 35.9102 13.0732 35.9102 13.9893ZM47.0801 19V9.00586H48.2422V17.9609H52.6787V19H47.0801ZM55.3584 11.5078V19H54.2236V11.5078H55.3584ZM54.8047 8.70508C54.9915 8.70508 55.151 8.7666 55.2832 8.88965C55.4199 9.00814 55.4883 9.19499 55.4883 9.4502C55.4883 9.70085 55.4199 9.8877 55.2832 10.0107C55.151 10.1338 54.9915 10.1953 54.8047 10.1953C54.6087 10.1953 54.4447 10.1338 54.3125 10.0107C54.1849 9.8877 54.1211 9.70085 54.1211 9.4502C54.1211 9.19499 54.1849 9.00814 54.3125 8.88965C54.4447 8.7666 54.6087 8.70508 54.8047 8.70508ZM62.6113 16.9492C62.6113 17.4277 62.4906 17.8311 62.249 18.1592C62.012 18.4827 61.6702 18.7266 61.2236 18.8906C60.7816 19.0547 60.2529 19.1367 59.6377 19.1367C59.1136 19.1367 58.6602 19.0957 58.2773 19.0137C57.8945 18.9316 57.5596 18.8154 57.2725 18.665V17.6191C57.5778 17.7695 57.9424 17.9062 58.3662 18.0293C58.79 18.1523 59.223 18.2139 59.665 18.2139C60.3122 18.2139 60.7816 18.109 61.0732 17.8994C61.3649 17.6898 61.5107 17.4049 61.5107 17.0449C61.5107 16.8398 61.4515 16.6598 61.333 16.5049C61.2191 16.3454 61.0254 16.1927 60.752 16.0469C60.4785 15.8965 60.1003 15.7324 59.6172 15.5547C59.1387 15.3724 58.724 15.1924 58.373 15.0146C58.0267 14.8324 57.7578 14.6113 57.5664 14.3516C57.3796 14.0918 57.2861 13.7546 57.2861 13.3398C57.2861 12.7064 57.5413 12.221 58.0518 11.8838C58.5667 11.542 59.2412 11.3711 60.0752 11.3711C60.5264 11.3711 60.9479 11.4167 61.3398 11.5078C61.7363 11.5944 62.1055 11.7129 62.4473 11.8633L62.0645 12.7725C61.7546 12.6403 61.4242 12.5286 61.0732 12.4375C60.7223 12.3464 60.3646 12.3008 60 12.3008C59.4759 12.3008 59.0726 12.3874 58.79 12.5605C58.512 12.7337 58.373 12.9707 58.373 13.2715C58.373 13.5039 58.4368 13.6953 58.5645 13.8457C58.6966 13.9961 58.9062 14.1374 59.1934 14.2695C59.4805 14.4017 59.8587 14.5566 60.3281 14.7344C60.7975 14.9076 61.2031 15.0876 61.5449 15.2744C61.8867 15.4567 62.1488 15.68 62.3311 15.9443C62.5179 16.2041 62.6113 16.5391 62.6113 16.9492ZM66.8564 18.207C67.0433 18.207 67.2347 18.1911 67.4307 18.1592C67.6266 18.1273 67.7861 18.0885 67.9092 18.043V18.9248C67.777 18.984 67.5924 19.0342 67.3555 19.0752C67.123 19.1162 66.8952 19.1367 66.6719 19.1367C66.2754 19.1367 65.9154 19.0684 65.5918 18.9316C65.2682 18.7904 65.0085 18.5534 64.8125 18.2207C64.6211 17.888 64.5254 17.4277 64.5254 16.8398V12.3965H63.459V11.8428L64.5322 11.3984L64.9834 9.77148H65.667V11.5078H67.8613V12.3965H65.667V16.8057C65.667 17.2751 65.7741 17.626 65.9883 17.8584C66.207 18.0908 66.4964 18.207 66.8564 18.207ZM70.5615 11.5078V19H69.4268V11.5078H70.5615ZM70.0078 8.70508C70.1947 8.70508 70.3542 8.7666 70.4863 8.88965C70.623 9.00814 70.6914 9.19499 70.6914 9.4502C70.6914 9.70085 70.623 9.8877 70.4863 10.0107C70.3542 10.1338 70.1947 10.1953 70.0078 10.1953C69.8118 10.1953 69.6478 10.1338 69.5156 10.0107C69.388 9.8877 69.3242 9.70085 69.3242 9.4502C69.3242 9.19499 69.388 9.00814 69.5156 8.88965C69.6478 8.7666 69.8118 8.70508 70.0078 8.70508ZM76.5156 11.3711C77.4043 11.3711 78.0765 11.5898 78.5322 12.0273C78.988 12.4603 79.2158 13.1576 79.2158 14.1191V19H78.0947V14.1943C78.0947 13.57 77.9512 13.1029 77.6641 12.793C77.3815 12.4831 76.9463 12.3281 76.3584 12.3281C75.529 12.3281 74.9456 12.5628 74.6084 13.0322C74.2712 13.5016 74.1025 14.1829 74.1025 15.0762V19H72.9678V11.5078H73.8838L74.0547 12.5879H74.1162C74.2757 12.3236 74.4785 12.1025 74.7246 11.9248C74.9707 11.7425 75.2464 11.6058 75.5518 11.5146C75.8571 11.4189 76.1784 11.3711 76.5156 11.3711ZM83.6455 22.3633C82.6611 22.3633 81.9023 22.1787 81.3691 21.8096C80.8359 21.445 80.5693 20.9323 80.5693 20.2715C80.5693 19.8021 80.7174 19.401 81.0137 19.0684C81.3145 18.7357 81.7292 18.5146 82.2578 18.4053C82.0618 18.3141 81.8932 18.1774 81.752 17.9951C81.6152 17.8128 81.5469 17.6032 81.5469 17.3662C81.5469 17.0928 81.6221 16.8535 81.7725 16.6484C81.9274 16.4388 82.1621 16.2383 82.4766 16.0469C82.0846 15.8874 81.7656 15.6185 81.5195 15.2402C81.278 14.8574 81.1572 14.4131 81.1572 13.9072C81.1572 13.3695 81.2689 12.9115 81.4922 12.5332C81.7155 12.1504 82.0391 11.8587 82.4629 11.6582C82.8867 11.4577 83.3994 11.3574 84.001 11.3574C84.1331 11.3574 84.2653 11.3643 84.3975 11.3779C84.5342 11.387 84.6641 11.403 84.7871 11.4258C84.9102 11.444 85.0173 11.4668 85.1084 11.4941H87.6787V12.2256L86.2979 12.3965C86.4346 12.5742 86.5485 12.7884 86.6396 13.0391C86.7308 13.2897 86.7764 13.5677 86.7764 13.873C86.7764 14.6204 86.5234 15.2152 86.0176 15.6572C85.5117 16.0947 84.8167 16.3135 83.9326 16.3135C83.723 16.3135 83.5088 16.2952 83.29 16.2588C83.0667 16.3818 82.8958 16.5186 82.7773 16.6689C82.6634 16.8193 82.6064 16.9925 82.6064 17.1885C82.6064 17.3343 82.6497 17.4505 82.7363 17.5371C82.8275 17.6237 82.9574 17.6875 83.126 17.7285C83.2946 17.765 83.4974 17.7832 83.7344 17.7832H85.0537C85.8695 17.7832 86.4938 17.9541 86.9268 18.2959C87.3643 18.6377 87.583 19.1367 87.583 19.793C87.583 20.6224 87.2458 21.2581 86.5713 21.7002C85.8968 22.1423 84.9215 22.3633 83.6455 22.3633ZM83.6797 21.4746C84.2995 21.4746 84.8122 21.4108 85.2178 21.2832C85.6279 21.1602 85.9333 20.9801 86.1338 20.7432C86.3389 20.5107 86.4414 20.2327 86.4414 19.9092C86.4414 19.6084 86.373 19.3805 86.2363 19.2256C86.0996 19.0752 85.8991 18.9749 85.6348 18.9248C85.3704 18.8701 85.0469 18.8428 84.6641 18.8428H83.3652C83.028 18.8428 82.734 18.8952 82.4834 19C82.2327 19.1048 82.0391 19.2598 81.9023 19.4648C81.7702 19.6699 81.7041 19.9251 81.7041 20.2305C81.7041 20.6361 81.875 20.9437 82.2168 21.1533C82.5586 21.3675 83.0462 21.4746 83.6797 21.4746ZM83.9736 15.4863C84.516 15.4863 84.9238 15.3496 85.1973 15.0762C85.4707 14.8027 85.6074 14.404 85.6074 13.8799C85.6074 13.3193 85.4684 12.9001 85.1904 12.6221C84.9124 12.3395 84.5023 12.1982 83.96 12.1982C83.4404 12.1982 83.0394 12.3441 82.7568 12.6357C82.4788 12.9229 82.3398 13.3444 82.3398 13.9004C82.3398 14.4108 82.4811 14.8027 82.7637 15.0762C83.0462 15.3496 83.4495 15.4863 83.9736 15.4863Z" fill="#2A323C"/>
<defs>
<filter id="filter0_d_27_87" x="0" y="0" width="106" height="29" filterUnits="userSpaceOnUse" color-interpolation-filters="sRGB">
<feFlood flood-opacity="0" result="BackgroundImageFix"/>
<feColorMatrix in="SourceAlpha" type="matrix" values="0 0 0 0 0 0 0 0 0 0 0 0 0 0 0 0 0 0 127 0" result="hardAlpha"/>
<feOffset dy="2"/>
<feGaussianBlur stdDeviation="0.5"/>
<feComposite in2="hardAlpha" operator="out"/>
<feColorMatrix type="matrix" values="0 0 0 0 0.141176 0 0 0 0 0.176471 0 0 0 0 0.235294 0 0 0 0.2 0"/>
<feBlend mode="normal" in2="BackgroundImageFix" result="effect1_dropShadow_27_87"/>
<feBlend mode="normal" in="SourceGraphic" in2="effect1_dropShadow_27_87" result="shape"/>
</filter>
</defs>
</svg>
