<svg width="69" height="22" viewBox="0 0 69 22" fill="none" xmlns="http://www.w3.org/2000/svg">
<g filter="url(#filter0_d_46_546)">
<rect x="2" width="65" height="18" rx="3" fill="#4CB6AA" fill-opacity="0.15" shape-rendering="crispEdges"/>
</g>
<path d="M14.5977 14H13.2031V5.43359H18.043V6.61719H14.5977V9.28906H17.8203V10.4668H14.5977V14ZM25.2031 10.7422C25.2031 11.2812 25.1328 11.7598 24.9922 12.1777C24.8516 12.5957 24.6465 12.9492 24.377 13.2383C24.1074 13.5234 23.7832 13.7422 23.4043 13.8945C23.0254 14.043 22.5977 14.1172 22.1211 14.1172C21.6758 14.1172 21.2676 14.043 20.8965 13.8945C20.5254 13.7422 20.2031 13.5234 19.9297 13.2383C19.6602 12.9492 19.4512 12.5957 19.3027 12.1777C19.1543 11.7598 19.0801 11.2812 19.0801 10.7422C19.0801 10.0273 19.2031 9.42188 19.4492 8.92578C19.6992 8.42578 20.0547 8.04492 20.5156 7.7832C20.9766 7.52148 21.5254 7.39062 22.1621 7.39062C22.7598 7.39062 23.2871 7.52148 23.7441 7.7832C24.2012 8.04492 24.5586 8.42578 24.8164 8.92578C25.0742 9.42578 25.2031 10.0312 25.2031 10.7422ZM20.498 10.7422C20.498 11.2148 20.5547 11.6191 20.668 11.9551C20.7852 12.291 20.9648 12.5488 21.207 12.7285C21.4492 12.9043 21.7617 12.9922 22.1445 12.9922C22.5273 12.9922 22.8398 12.9043 23.082 12.7285C23.3242 12.5488 23.502 12.291 23.6152 11.9551C23.7285 11.6191 23.7852 11.2148 23.7852 10.7422C23.7852 10.2695 23.7285 9.86914 23.6152 9.54102C23.502 9.20898 23.3242 8.95703 23.082 8.78516C22.8398 8.60938 22.5254 8.52148 22.1387 8.52148C21.5684 8.52148 21.1523 8.71289 20.8906 9.0957C20.6289 9.47852 20.498 10.0273 20.498 10.7422ZM30.0723 7.39062C30.1816 7.39062 30.3008 7.39648 30.4297 7.4082C30.5586 7.41992 30.6699 7.43555 30.7637 7.45508L30.6348 8.74414C30.5527 8.7207 30.4512 8.70312 30.3301 8.69141C30.2129 8.67969 30.1074 8.67383 30.0137 8.67383C29.7676 8.67383 29.5332 8.71484 29.3105 8.79688C29.0879 8.875 28.8906 8.99609 28.7188 9.16016C28.5469 9.32031 28.4121 9.52148 28.3145 9.76367C28.2168 10.0059 28.168 10.2871 28.168 10.6074V14H26.7852V7.51367H27.8633L28.0508 8.65625H28.1152C28.2441 8.42578 28.4043 8.21484 28.5957 8.02344C28.7871 7.83203 29.0059 7.67969 29.252 7.56641C29.502 7.44922 29.7754 7.39062 30.0723 7.39062ZM40.168 11.668C40.168 12.1758 40.043 12.6133 39.793 12.9805C39.5469 13.3477 39.1914 13.6289 38.7266 13.8242C38.2656 14.0195 37.7148 14.1172 37.0742 14.1172C36.7617 14.1172 36.4629 14.0996 36.1777 14.0645C35.8926 14.0293 35.623 13.9785 35.3691 13.9121C35.1191 13.8418 34.8906 13.7578 34.6836 13.6602V12.3359C35.0312 12.4883 35.4199 12.627 35.8496 12.752C36.2793 12.873 36.7168 12.9336 37.1621 12.9336C37.5254 12.9336 37.8262 12.8867 38.0645 12.793C38.3066 12.6953 38.4863 12.5586 38.6035 12.3828C38.7207 12.2031 38.7793 11.9941 38.7793 11.7559C38.7793 11.502 38.7109 11.2871 38.5742 11.1113C38.4375 10.9355 38.2305 10.7754 37.9531 10.6309C37.6797 10.4824 37.3359 10.3242 36.9219 10.1562C36.6406 10.043 36.3711 9.91406 36.1133 9.76953C35.8594 9.625 35.6328 9.45508 35.4336 9.25977C35.2344 9.06445 35.0762 8.83398 34.959 8.56836C34.8457 8.29883 34.7891 7.98242 34.7891 7.61914C34.7891 7.13477 34.9043 6.7207 35.1348 6.37695C35.3691 6.0332 35.6973 5.76953 36.1191 5.58594C36.5449 5.40234 37.041 5.31055 37.6074 5.31055C38.0566 5.31055 38.4785 5.35742 38.873 5.45117C39.2715 5.54492 39.6621 5.67773 40.0449 5.84961L39.5996 6.98047C39.248 6.83594 38.9062 6.7207 38.5742 6.63477C38.2461 6.54883 37.9102 6.50586 37.5664 6.50586C37.2695 6.50586 37.0176 6.55078 36.8105 6.64062C36.6035 6.73047 36.4453 6.85742 36.3359 7.02148C36.2305 7.18164 36.1777 7.37305 36.1777 7.5957C36.1777 7.8457 36.2383 8.05664 36.3594 8.22852C36.4844 8.39648 36.6758 8.55078 36.9336 8.69141C37.1953 8.83203 37.5312 8.98828 37.9414 9.16016C38.4141 9.35547 38.8145 9.56055 39.1426 9.77539C39.4746 9.99023 39.7285 10.248 39.9043 10.5488C40.0801 10.8457 40.168 11.2188 40.168 11.668ZM44.2227 7.39062C45.043 7.39062 45.6621 7.57227 46.0801 7.93555C46.502 8.29883 46.7129 8.86523 46.7129 9.63477V14H45.7344L45.4707 13.0801H45.4238C45.2402 13.3145 45.0508 13.5078 44.8555 13.6602C44.6602 13.8125 44.4336 13.9258 44.1758 14C43.9219 14.0781 43.6113 14.1172 43.2441 14.1172C42.8574 14.1172 42.5117 14.0469 42.207 13.9062C41.9023 13.7617 41.6621 13.543 41.4863 13.25C41.3105 12.957 41.2227 12.5859 41.2227 12.1367C41.2227 11.4688 41.4707 10.9668 41.9668 10.6309C42.4668 10.2949 43.2207 10.1094 44.2285 10.0742L45.3535 10.0332V9.69336C45.3535 9.24414 45.248 8.92383 45.0371 8.73242C44.8301 8.54102 44.5371 8.44531 44.1582 8.44531C43.834 8.44531 43.5195 8.49219 43.2148 8.58594C42.9102 8.67969 42.6133 8.79492 42.3242 8.93164L41.8789 7.95898C42.1953 7.79102 42.5547 7.6543 42.957 7.54883C43.3633 7.44336 43.7852 7.39062 44.2227 7.39062ZM45.3477 10.9004L44.5098 10.9297C43.8223 10.9531 43.3398 11.0703 43.0625 11.2812C42.7852 11.4922 42.6465 11.7812 42.6465 12.1484C42.6465 12.4688 42.7422 12.7031 42.9336 12.8516C43.125 12.9961 43.377 13.0684 43.6895 13.0684C44.166 13.0684 44.5605 12.9336 44.873 12.6641C45.1895 12.3906 45.3477 11.9902 45.3477 11.4629V10.9004ZM50.0234 14H48.6406V4.88281H50.0234V14ZM54.5762 7.39062C55.1543 7.39062 55.6504 7.50977 56.0645 7.74805C56.4785 7.98633 56.7969 8.32422 57.0195 8.76172C57.2422 9.19922 57.3535 9.72266 57.3535 10.332V11.0703H53.0234C53.0391 11.6992 53.207 12.1836 53.5273 12.5234C53.8516 12.8633 54.3047 13.0332 54.8867 13.0332C55.3008 13.0332 55.6719 12.9941 56 12.916C56.332 12.834 56.6738 12.7148 57.0254 12.5586V13.6777C56.7012 13.8301 56.3711 13.9414 56.0352 14.0117C55.6992 14.082 55.2969 14.1172 54.8281 14.1172C54.1914 14.1172 53.6309 13.9941 53.1465 13.748C52.666 13.498 52.2891 13.127 52.0156 12.6348C51.7461 12.1426 51.6113 11.5312 51.6113 10.8008C51.6113 10.0742 51.7344 9.45703 51.9805 8.94922C52.2266 8.44141 52.5723 8.05469 53.0176 7.78906C53.4629 7.52344 53.9824 7.39062 54.5762 7.39062ZM54.5762 8.42773C54.1426 8.42773 53.791 8.56836 53.5215 8.84961C53.2559 9.13086 53.0996 9.54297 53.0527 10.0859H56.0059C56.002 9.76172 55.9473 9.47461 55.8418 9.22461C55.7402 8.97461 55.584 8.7793 55.373 8.63867C55.166 8.49805 54.9004 8.42773 54.5762 8.42773Z" fill="#4CB6AA"/>
<defs>
<filter id="filter0_d_46_546" x="0" y="0" width="69" height="22" filterUnits="userSpaceOnUse" color-interpolation-filters="sRGB">
<feFlood flood-opacity="0" result="BackgroundImageFix"/>
<feColorMatrix in="SourceAlpha" type="matrix" values="0 0 0 0 0 0 0 0 0 0 0 0 0 0 0 0 0 0 127 0" result="hardAlpha"/>
<feOffset dy="2"/>
<feGaussianBlur stdDeviation="1"/>
<feComposite in2="hardAlpha" operator="out"/>
<feColorMatrix type="matrix" values="0 0 0 0 0.0745098 0 0 0 0 0.411765 0 0 0 0 0.372549 0 0 0 0.2 0"/>
<feBlend mode="normal" in2="BackgroundImageFix" result="effect1_dropShadow_46_546"/>
<feBlend mode="normal" in="SourceGraphic" in2="effect1_dropShadow_46_546" result="shape"/>
</filter>
</defs>
</svg>
