<svg width="100" height="100" viewBox="0 0 100 100" fill="none" xmlns="http://www.w3.org/2000/svg">
<path d="M85.6413 24.3587C77.5147 16.2321 66.4927 11.6667 55 11.6667C43.5073 11.6667 32.4852 16.2321 24.3587 24.3587C16.2321 32.4853 11.6666 43.5073 11.6666 55C11.6666 66.4927 16.2321 77.5147 24.3587 85.6413C32.4852 93.7679 43.5073 98.3333 55 98.3333C66.4927 98.3333 77.5147 93.7679 85.6413 85.6413C93.7678 77.5147 98.3333 66.4927 98.3333 55C98.3333 43.5073 93.7678 32.4853 85.6413 24.3587ZM93.3016 16.6984C103.46 26.8566 109.167 40.6341 109.167 55C109.167 69.3659 103.46 83.1434 93.3016 93.3016C88.2717 98.3315 82.3005 102.321 75.7287 105.043C69.1569 107.766 62.1132 109.167 55 109.167C40.6341 109.167 26.8566 103.46 16.6983 93.3016C6.54013 83.1434 0.833297 69.3659 0.833297 55C0.833297 40.6341 6.54013 26.8566 16.6983 16.6984C21.7282 11.6685 27.6995 7.67865 34.2713 4.95652C40.8431 2.23439 47.8867 0.833333 55 0.833329C62.1132 0.83333 69.1569 2.23439 75.7287 4.95652C82.3005 7.67865 88.2717 11.6685 93.3016 16.6984ZM37.7642 53.0849C40.8284 56.149 40.8284 61.5113 37.7642 64.5754C34.7001 67.6395 29.3379 67.6395 26.2738 64.5754C23.2096 61.5113 23.2096 56.149 26.2738 53.0849C29.3379 50.0208 34.7001 50.0208 37.7642 53.0849ZM64.5754 26.2738C67.6395 29.3379 67.6395 34.7001 64.5754 37.7643C61.5112 40.8284 56.149 40.8284 53.0849 37.7643C50.0208 34.7001 50.0208 29.3379 53.0849 26.2738C56.149 23.2097 61.5112 23.2097 64.5754 26.2738ZM75.0317 75.0317C68.3289 81.7345 59.6345 84.837 52.0507 84.1475L52.0507 73.2699C56.532 74.304 62.5837 72.1591 67.3714 67.3714C72.1591 62.5837 74.304 56.5321 73.2698 52.0508H84.1475C84.8369 59.6345 81.7345 68.329 75.0317 75.0317Z" fill="#1252AE" fill-opacity="0.06"/>
</svg>
