<svg width="10" height="13" viewBox="0 0 10 13" fill="none" xmlns="http://www.w3.org/2000/svg">
<path d="M5.00001 1.33335C6.28334 1.33335 7.33334 2.38335 7.33334 3.66669C7.33334 4.89169 6.10834 6.87502 5.00001 8.27502C3.89168 6.81669 2.66668 4.89169 2.66668 3.66669C2.66668 2.38335 3.71668 1.33335 5.00001 1.33335ZM5.00001 0.166687C3.07501 0.166687 1.50001 1.74169 1.50001 3.66669C1.50001 6.29169 5.00001 10.0834 5.00001 10.0834C5.00001 10.0834 8.50001 6.23335 8.50001 3.66669C8.50001 1.74169 6.92501 0.166687 5.00001 0.166687ZM5.00001 2.50002C4.35834 2.50002 3.83334 3.02502 3.83334 3.66669C3.83334 4.30835 4.35834 4.83335 5.00001 4.83335C5.64168 4.83335 6.16668 4.30835 6.16668 3.66669C6.16668 3.02502 5.64168 2.50002 5.00001 2.50002ZM9.66668 10.0834C9.66668 11.3667 7.56668 12.4167 5.00001 12.4167C2.43334 12.4167 0.333344 11.3667 0.333344 10.0834C0.333344 9.32502 1.03334 8.68335 2.14168 8.21669L2.49168 8.74169C1.90834 9.03335 1.50001 9.38335 1.50001 9.79169C1.50001 10.6084 3.07501 11.25 5.00001 11.25C6.92501 11.25 8.50001 10.6084 8.50001 9.79169C8.50001 9.38335 8.09168 9.03335 7.45001 8.74169L7.80001 8.21669C8.96668 8.68335 9.66668 9.32502 9.66668 10.0834Z" fill="#1252AE"/>
</svg>
